# xmcd
#
# Track frame offsets:
#	150
#	10217
#	19193
#	33103
#	40655
#	53095
#	62885
#	76501
#	87928
#	99352
#	112772
#	123760
#	133171
#	146278
#	158282
#	169771
#	181534
#	192589
#	206298
#	217635
#
# Disc length: 3052 seconds
#
# Revision: 0
# Processed by: cddbd v1.5.2PL0 Copyright (c) Steve Scherf et al.
# Submitted via: EasyCDDAExtractor 11.1.0.1
#
DISCID=e40bea14
DTITLE=Various Artist - The Country Collection - Get rhythm
DYEAR=2008
DGENRE=country
TTITLE0=Johnny Cash - Get rhythm
TTITLE1=Elvis Presley - Don't leave me now
TTITLE2=Willie Nelson - Good hearted woman
TTITLE3=Jim Reeves - Oklahoma Hills
TTITLE4=Hank Williams - I won't be home no more
TTITLE5=Patsy Cline - Turn the cards slowly
TTITLE6=Pee Wee King - Slow poke
TTITLE7=Jean Shepherd and Ferlin Husky - A dear John letter
TTITLE8=Red Foley and The Dixie Dons - M-I-S-S-I-S-I-P-E
TTITLE9=Merle Travis - So round so firm so fully packed
TTITLE10=Elvis Presley - Have I told you lately that I love you
TTITLE11=Tennessee Ernie Ford and Helen O'Connell - Hey good lookin'
TTITLE12=Tex Williams - Smoke smoke smoke that cigarette
TTITLE13=Hank Snow - The gal who invented kissing
TTITLE14=Al Dexter - I'll wait for you dear
TTITLE15=Carl Smith - Are you teasing me
TTITLE16=The Carlisles - No help wanted
TTITLE17=Elvis Presley - Lonesome cowboy
TTITLE18=Johnny Cash - Big river
TTITLE19=Frankie Laine -  Rose Rose I love you
EXTD=
EXTT0=
EXTT1=
EXTT2=
EXTT3=
EXTT4=
EXTT5=
EXTT6=
EXTT7=
EXTT8=
EXTT9=
EXTT10=
EXTT11=
EXTT12=
EXTT13=
EXTT14=
EXTT15=
EXTT16=
EXTT17=
EXTT18=
EXTT19=
PLAYORDER=
